<?xml version="1.0" encoding="utf-8"?>
<!-- Generator: Adobe Illustrator 19.2.1, SVG Export Plug-In . SVG Version: 6.00 Build 0)  -->
<svg version="1.1" id="Layer_1" xmlns="http://www.w3.org/2000/svg" xmlns:xlink="http://www.w3.org/1999/xlink" x="0px" y="0px"
	 viewBox="0 0 400 400" style="enable-background:new 0 0 400 400;" xml:space="preserve">
<style type="text/css">
	.st0{fill:#1E90FF;stroke:#FFFFFF;stroke-miterlimit:10;}
	.st1{fill:#FFFFFF;stroke:#FFFFFF;stroke-miterlimit:10;}
	.st2{fill:#FFFFFF;stroke:#000000;stroke-miterlimit:10;}
	.st3{fill:#1762A0;}
	.st4{fill:#180064;stroke:#FFFFFF;stroke-miterlimit:10;}
	.st5{fill:#FFFFFF;}
	.st6{font-family:'Raleway-Bold';}
	.st7{font-size:37.8264px;}
</style>
<path class="st0" d="M197.1,89.6C269.7,90.8,321,99.8,321,99.8s-7.8,80.5-29.7,108.6c-22.7,27.2-87.9,58-91.3,59.6
	c-3.6-1.7-68.6-32.4-91.2-59.6C86.8,180.4,79,99.8,79,99.8s51.3-9,123.9-10.1"/>
<path class="st1" d="M201,101c65.6,0,106.4,6.7,106.4,6.7s-6.9,69.8-23.6,97.3c-19.6,25.3-79.8,50.8-83.4,53.4
	c-2.9-2.6-63.9-28-83.4-53.4c-16.6-27.4-24.3-97.3-24.3-97.3S135.3,101,201,101"/>
<path class="st2" d="M114.5,204.5"/>
<path class="st2" d="M176.7,251"/>
<path class="st3" d="M146.9,146.4c22.2-10.6,38.4,19.6-3.4,10.9c-15.8-3.3,18.7-59.1,18.3-42.4c-0.1,2.1,3.9,14.8,2.4,13.4
	C154.6,119.5,138.7,150.3,146.9,146.4z"/>
<path class="st3" d="M151.2,137.9c8.5-0.2,13.6,1-6.3,6.9c-5.5,1.6,15.2-19.4,13.8-14.4c-0.2,0.6,0.3,5-0.2,4.4
	C155.9,130.7,148,138,151.2,137.9z"/>
<path class="st4" d="M342.5,283.5"/>
<path class="st5" d="M167.8,229.3"/>
<path class="st3" d="M111.3,152.5c-0.1,2.1-5.8-9.8-7.2-11.2c-11.4-11.2,49.5,0.5,40.7,15.2c-23.3,38.8-32,5.1-9.6-4.9
	C143.4,147.9,112,138.9,111.3,152.5z"/>
<path class="st3" d="M119.3,152.5c0.1,0.8-2.5-2.6-3-2.9c-4.3-2.4,24-4,19.1-0.8c-17.7,11.5-15,6.7-8.9,0.2
	C128.8,146.6,118.6,147.7,119.3,152.5z"/>
<path class="st5" d="M162.2,150.2c0-0.8,2.1,3,2.6,3.4c3.9,3.2-24.5-0.7-19.2-2.9c19.3-7.8,15.9-3.6,8.9,1.6
	C152,154.2,162.3,155,162.2,150.2z"/>
<path class="st5" d="M133.9,162c-8.2,2.5-13.2,2.6,4.7-8.4c5-3.1-10.8,23.2-10.4,17.8c0-0.7-1.2-4.9-0.7-4.4
	C130.8,170.2,136.9,161.1,133.9,162z"/>
<path class="st3" d="M133.9,142.1c-0.2,0.3,0-2.2-0.1-2.6c-0.9-3,11.4,10.6,8.1,9.3c-11.6-4.7-8.7-5.1-3.7-4.4
	C140,144.7,135.4,140,133.9,142.1z"/>
<path class="st3" d="M140.2,143.9c2.6-4.8,4.7-7.1,0.9,6c-1.1,3.6-3.2-15.5-1.6-12.9c0.2,0.3,2.1,1.7,1.8,1.7
	C138.7,138.7,139.2,145.7,140.2,143.9z"/>
<text transform="matrix(0.8187 0 0 1 142.9702 188.8843)" class="st3 st6 st7">Volunteer</text>
</svg>
